HIERARCHY
ROOT reference
{
  OFFSET 0 0 0
  CHANNELS 6 Xposition Yposition Zposition Zrotation Xrotation Yrotation
  JOINT Hips
  {
    OFFSET 350.331 86.7696 215.823
    CHANNELS 3 Zrotation Xrotation Yrotation
    JOINT RightUpLeg
    {
      OFFSET -9.29271 -1.56052 -0.0234997
      CHANNELS 3 Zrotation Xrotation Yrotation
      JOINT RightLeg
      {
        OFFSET -0.0199852 -41.8973 0.0465042
        CHANNELS 3 Zrotation Xrotation Yrotation
        JOINT RightFoot
        {
          OFFSET -0.344404 -43.5008 0.46033
          CHANNELS 3 Zrotation Xrotation Yrotation
          End Site
          {
            OFFSET 0 -7.69 17.5
          }
        }
      }
    }
    JOINT LeftUpLeg
    {
      OFFSET 9.27671 -1.61046 0.00923455
      CHANNELS 3 Zrotation Xrotation Yrotation
      JOINT LeftLeg
      {
        OFFSET 0.0572944 -41.8832 0.025786
        CHANNELS 3 Zrotation Xrotation Yrotation
        JOINT LeftFoot
        {
          OFFSET 0.630082 -40.4663 0.064708
          CHANNELS 3 Zrotation Xrotation Yrotation
          End Site
          {
            OFFSET 0 -7.69 17.5
          }
        }
      }
    }
    JOINT Spine
    {
      OFFSET 0.0336257 14.3009 0.0467062
      CHANNELS 3 Zrotation Xrotation Yrotation
      JOINT Spine1
      {
        OFFSET 0.0295985 9.72711 0.0239471
        CHANNELS 3 Zrotation Xrotation Yrotation
        JOINT Spine2
        {
          OFFSET 0.0515174 10.1206 0.00128176
          CHANNELS 3 Zrotation Xrotation Yrotation
          JOINT Spine3
          {
            OFFSET 0.0546141 9.71668 0.0122483
            CHANNELS 3 Zrotation Xrotation Yrotation
            JOINT Neck
            {
              OFFSET 0.0872189 10.3831 0.0511468
              CHANNELS 3 Zrotation Xrotation Yrotation
              JOINT Head
              {
                OFFSET 0.0544 9.47189 0.0313815
                CHANNELS 3 Zrotation Xrotation Yrotation
                End Site
                {
                  OFFSET 0 15.95 0
                }
              }
            }
            JOINT RightShoulder
            {
              OFFSET -3.15364 6.93551 0.0260198
              CHANNELS 3 Zrotation Xrotation Yrotation
              JOINT RightArm
              {
                OFFSET -12.7567 0.0626665 0.0664987
                CHANNELS 3 Zrotation Xrotation Yrotation
                JOINT RightForeArm
                {
                  OFFSET -26.5087 -0.073346 0.274032
                  CHANNELS 3 Zrotation Xrotation Yrotation
                  JOINT RightHand
                  {
                    OFFSET -26.0005 -0.196673 0.105827
                    CHANNELS 3 Zrotation Xrotation Yrotation
                    JOINT RightHandThumb1
                    {
                      OFFSET -2.48905 0.190105 3.12053
                      CHANNELS 3 Zrotation Xrotation Yrotation
                      JOINT RightHandThumb2
                      {
                        OFFSET -3.68274 0 0
                        CHANNELS 3 Zrotation Xrotation Yrotation
                        JOINT RightHandThumb3
                        {
                          OFFSET -2.55832 0 0
                          CHANNELS 3 Zrotation Xrotation Yrotation
                          End Site
                          {
                            OFFSET -2.194 0 0
                          }
                        }
                      }
                    }
                    JOINT RightInHandIndex
                    {
                      OFFSET -3.22368 0.508421 1.97842
                      CHANNELS 3 Zrotation Xrotation Yrotation
                      JOINT RightHandIndex1
                      {
                        OFFSET -5.21684 -0.091368 0.999158
                        CHANNELS 3 Zrotation Xrotation Yrotation
                        JOINT RightHandIndex2
                        {
                          OFFSET -3.61937 0 0
                          CHANNELS 3 Zrotation Xrotation Yrotation
                          JOINT RightHandIndex3
                          {
                            OFFSET -2.0521 0 0
                            CHANNELS 3 Zrotation Xrotation Yrotation
                            End Site
                            {
                              OFFSET -1.805 0 0
                            }
                          }
                        }
                      }
                    }
                    JOINT RightInHandMiddle
                    {
                      OFFSET -3.38211 0.517263 0.756737
                      CHANNELS 3 Zrotation Xrotation Yrotation
                      JOINT RightHandMiddle1
                      {
                        OFFSET -5.17411 -0.084 0.313895
                        CHANNELS 3 Zrotation Xrotation Yrotation
                        JOINT RightHandMiddle2
                        {
                          OFFSET -3.94947 0 0
                          CHANNELS 3 Zrotation Xrotation Yrotation
                          JOINT RightHandMiddle3
                          {
                            OFFSET -2.47579 0 0
                            CHANNELS 3 Zrotation Xrotation Yrotation
                            End Site
                            {
                              OFFSET -1.975 0 0
                            }
                          }
                        }
                      }
                    }
                    JOINT RightInHandRing
                    {
                      OFFSET -3.36516 0.537895 -0.128947
                      CHANNELS 3 Zrotation Xrotation Yrotation
                      JOINT RightHandRing1
                      {
                        OFFSET -4.63474 -0.022105 -0.478947
                        CHANNELS 3 Zrotation Xrotation Yrotation
                        JOINT RightHandRing2
                        {
                          OFFSET -3.44238 0 0
                          CHANNELS 3 Zrotation Xrotation Yrotation
                          JOINT RightHandRing3
                          {
                            OFFSET -2.3881 0 0
                            CHANNELS 3 Zrotation Xrotation Yrotation
                            End Site
                            {
                              OFFSET -1.857 0 0
                            }
                          }
                        }
                      }
                    }
                    JOINT RightInHandPinky
                    {
                      OFFSET -3.16105 0.469368 -1.20179
                      CHANNELS 3 Zrotation Xrotation Yrotation
                      JOINT RightHandPinky1
                      {
                        OFFSET -4.14105 -0.022105 -1.09053
                        CHANNELS 3 Zrotation Xrotation Yrotation
                        JOINT RightHandPinky2
                        {
                          OFFSET -2.75653 0 0
                          CHANNELS 3 Zrotation Xrotation Yrotation
                          JOINT RightHandPinky3
                          {
                            OFFSET -1.74189 0 0
                            CHANNELS 3 Zrotation Xrotation Yrotation
                            End Site
                            {
                              OFFSET -1.645 0 0
                            }
                          }
                        }
                      }
                    }
                  }
                }
              }
            }
            JOINT LeftShoulder
            {
              OFFSET 3.27252 6.91581 -0.0198585
              CHANNELS 3 Zrotation Xrotation Yrotation
              JOINT LeftArm
              {
                OFFSET 12.8319 -0.0466028 -0.0574599
                CHANNELS 3 Zrotation Xrotation Yrotation
                JOINT LeftForeArm
                {
                  OFFSET 26.4942 -0.039105 -0.0936
                  CHANNELS 3 Zrotation Xrotation Yrotation
                  JOINT LeftHand
                  {
                    OFFSET 26.0008 0.022674 -0.016655
                    CHANNELS 3 Zrotation Xrotation Yrotation
                    JOINT LeftHandThumb1
                    {
                      OFFSET 2.48905 0.190105 3.12053
                      CHANNELS 3 Zrotation Xrotation Yrotation
                      JOINT LeftHandThumb2
                      {
                        OFFSET 3.68274 0 0
                        CHANNELS 3 Zrotation Xrotation Yrotation
                        JOINT LeftHandThumb3
                        {
                          OFFSET 2.55832 0 0
                          CHANNELS 3 Zrotation Xrotation Yrotation
                          End Site
                          {
                            OFFSET 2.194 0 0
                          }
                        }
                      }
                    }
                    JOINT LeftInHandIndex
                    {
                      OFFSET 3.22368 0.508421 1.97842
                      CHANNELS 3 Zrotation Xrotation Yrotation
                      JOINT LeftHandIndex1
                      {
                        OFFSET 5.21684 -0.091368 0.999158
                        CHANNELS 3 Zrotation Xrotation Yrotation
                        JOINT LeftHandIndex2
                        {
                          OFFSET 3.61937 0 0
                          CHANNELS 3 Zrotation Xrotation Yrotation
                          JOINT LeftHandIndex3
                          {
                            OFFSET 2.0521 0 0
                            CHANNELS 3 Zrotation Xrotation Yrotation
                            End Site
                            {
                              OFFSET 1.805 0 0
                            }
                          }
                        }
                      }
                    }
                    JOINT LeftInHandMiddle
                    {
                      OFFSET 3.38211 0.517263 0.756737
                      CHANNELS 3 Zrotation Xrotation Yrotation
                      JOINT LeftHandMiddle1
                      {
                        OFFSET 5.17411 -0.084 0.313895
                        CHANNELS 3 Zrotation Xrotation Yrotation
                        JOINT LeftHandMiddle2
                        {
                          OFFSET 3.94947 0 0
                          CHANNELS 3 Zrotation Xrotation Yrotation
                          JOINT LeftHandMiddle3
                          {
                            OFFSET 2.47579 0 0
                            CHANNELS 3 Zrotation Xrotation Yrotation
                            End Site
                            {
                              OFFSET 1.975 0 0
                            }
                          }
                        }
                      }
                    }
                    JOINT LeftInHandRing
                    {
                      OFFSET 3.36516 0.537895 -0.128947
                      CHANNELS 3 Zrotation Xrotation Yrotation
                      JOINT LeftHandRing1
                      {
                        OFFSET 4.63474 -0.022105 -0.478947
                        CHANNELS 3 Zrotation Xrotation Yrotation
                        JOINT LeftHandRing2
                        {
                          OFFSET 3.44238 0 0
                          CHANNELS 3 Zrotation Xrotation Yrotation
                          JOINT LeftHandRing3
                          {
                            OFFSET 2.3881 0 0
                            CHANNELS 3 Zrotation Xrotation Yrotation
                            End Site
                            {
                              OFFSET 1.857 0 0
                            }
                          }
                        }
                      }
                    }
                    JOINT LeftInHandPinky
                    {
                      OFFSET 3.16105 0.469368 -1.20179
                      CHANNELS 3 Zrotation Xrotation Yrotation
                      JOINT LeftHandPinky1
                      {
                        OFFSET 4.14105 -0.022105 -1.09053
                        CHANNELS 3 Zrotation Xrotation Yrotation
                        JOINT LeftHandPinky2
                        {
                          OFFSET 2.75653 0 0
                          CHANNELS 3 Zrotation Xrotation Yrotation
                          JOINT LeftHandPinky3
                          {
                            OFFSET 1.74189 0 0
                            CHANNELS 3 Zrotation Xrotation Yrotation
                            End Site
                            {
                              OFFSET 1.645 0 0
                            }
                          }
                        }
                      }
                    }
                  }
                }
              }
            }
          }
        }
      }
    }
  }
}
MOTION
Frames: 2
Frame Time: 0.00833333
7.500000000000000000e+02 0.000000000000000000e+00 0.000000000000000000e+00 0.000000000000000000e+00 0.000000000000000000e+00 0.000000000000000000e+00 5.197071594834324904e-01 1.510621823070278369e+00 2.813627895766722009e+00 -5.642331805288350211e+00 -1.783281688297083889e+00 -6.116958441000740265e+00 7.331571524298488018e-01 2.353161082601001652e+00 -6.482967228599492149e-01 2.282922634871869527e-01 -1.161986380024259136e+00 -1.144803950148943095e+00 1.183295695378883128e-02 -4.109154008823443505e+00 -1.152485042403253335e+00 1.767473769238075754e+00 -8.778187105791804834e-01 -1.916719651576329841e+00 -3.586597816576004294e-01 2.125619383283380515e+00 -2.252382029024474486e-01 -9.294124291600693866e-01 1.247149881771294710e+00 -5.281483822178112408e-01 -1.798879033150514450e-01 3.848704445292684406e-01 -1.847010696896436432e-01 -2.891329167379960152e-01 6.372071834855503880e-01 -1.645218606417569729e-01 1.583984843758685090e-01 5.537651812183572164e-02 -2.816143054816443447e-01 1.413269040840191559e-01 6.387628340698059404e-01 2.834458785617819387e+00 2.927347789052622495e+00 -9.816247938460215261e-01 -6.926042341972023841e+00 1.952634240636358653e-01 -1.733091810911380426e+00 1.566695978072349060e+00 2.516123627565870491e-01 6.181607579455060453e+00 -3.999285982602168166e-01 -5.544895856674661339e+00 -9.050230500308842352e+00 -1.644969846305191297e+01 1.651093779917182092e-01 -7.774999840363389092e-01 -4.583097511978289518e+00 0.000000000000000000e+00 0.000000000000000000e+00 0.000000000000000000e+00 -4.846215278443952291e-15 1.890019330153893367e-15 0.000000000000000000e+00 -2.503965417846702176e-16 9.927991689067571458e-16 0.000000000000000000e+00 -3.683494171173633791e-16 -5.726054626328314348e-16 -5.514112695873468493e-16 0.000000000000000000e+00 0.000000000000000000e+00 0.000000000000000000e+00 0.000000000000000000e+00 -7.477794846654861843e-16 -5.973987352193572458e-15 0.000000000000000000e+00 -3.495096465591670114e-16 -1.343819911492812401e-15 -3.683494171173633791e-16 -5.726054626328314348e-16 -5.514112695873468493e-16 0.000000000000000000e+00 3.227783331295729728e-16 2.591773988875195360e-16 0.000000000000000000e+00 -2.549916462206102251e-16 -2.689559120895595388e-15 0.000000000000000000e+00 1.178977768347366466e-16 -8.991099120964315269e-16 -3.683494171173633791e-16 -5.726054626328314348e-16 -5.514112695873468493e-16 0.000000000000000000e+00 0.000000000000000000e+00 0.000000000000000000e+00 0.000000000000000000e+00 -1.834108575146861050e-15 9.247519233889772028e-17 0.000000000000000000e+00 -1.787059160264848261e-15 -1.619541489950634280e-15 -3.683494171173633791e-16 -5.726054626328314348e-16 -5.514112695873468493e-16 0.000000000000000000e+00 0.000000000000000000e+00 0.000000000000000000e+00 0.000000000000000000e+00 -1.098843652543701767e-15 -5.678980785574629645e-15 0.000000000000000000e+00 3.949386659426513186e-16 9.089703393601124393e-19 2.529239124630915381e+00 1.911804897571887582e-02 3.533974197865387357e+00 -4.564693755990634205e-02 1.915145727367846495e+00 3.277429666575852885e+00 -3.507595377696971717e+00 -1.036225796553295275e+01 8.905788417848061300e+00 5.511168153621975874e-01 -1.635525552594415677e+00 2.374678773644033125e+00 0.000000000000000000e+00 0.000000000000000000e+00 0.000000000000000000e+00 7.273200271773342191e-17 -1.251709076622859001e-15 0.000000000000000000e+00 -1.848654137368787009e-15 -8.908442036609647489e-16 0.000000000000000000e+00 -9.208411756110519785e-17 5.904255491170940796e-16 8.881553296004723941e-16 0.000000000000000000e+00 0.000000000000000000e+00 0.000000000000000000e+00 0.000000000000000000e+00 2.870730173109393251e-16 -9.083231190440515180e-17 0.000000000000000000e+00 3.502777890911730704e-16 2.076166767069669485e-16 -9.208411756110519785e-17 5.904255491170940796e-16 8.881553296004723941e-16 0.000000000000000000e+00 3.970632443409259861e-16 4.128293646862082018e-16 0.000000000000000000e+00 -5.886267555354433374e-16 2.875051934409451325e-15 0.000000000000000000e+00 2.824782818001838604e-16 7.994549169573550139e-16 -9.208411756110519785e-17 5.904255491170940796e-16 8.881553296004723941e-16 0.000000000000000000e+00 0.000000000000000000e+00 0.000000000000000000e+00 0.000000000000000000e+00 1.456278230901505995e-16 -4.032973945690580488e-16 0.000000000000000000e+00 3.702834985731091191e-16 2.848447628849968203e-15 -9.208411756110519785e-17 5.904255491170940796e-16 8.881553296004723941e-16 0.000000000000000000e+00 0.000000000000000000e+00 0.000000000000000000e+00 0.000000000000000000e+00 2.065462204246906283e-16 -2.082237915104719036e-16 0.000000000000000000e+00 2.178175461839176450e-17 3.342581225455146069e-15
7.500000000000000000e+02 0.000000000000000000e+00 0.000000000000000000e+00 0.000000000000000000e+00 0.000000000000000000e+00 0.000000000000000000e+00 5.347840693287680969e-01 1.574014168876732844e+00 2.942932734367450287e+00 -5.877839396812057693e+00 -1.942005059066512329e+00 -6.356321355099915138e+00 7.711111027042363286e-01 2.450045131198982595e+00 -6.946171344341480758e-01 2.511721907846615753e-01 -1.219319635195389440e+00 -1.195828671905493579e+00 2.688063051893968547e-02 -4.330018510435671431e+00 -1.163401565021321193e+00 1.870090431221651084e+00 -8.676939979117884727e-01 -2.008663454410189786e+00 -3.913836296580819329e-01 2.177029589609652760e+00 -2.739619618427254766e-01 -9.249437333450342136e-01 1.325794083735137185e+00 -5.553202661433807030e-01 -1.784492852322854817e-01 4.048618632224215697e-01 -1.933484243341010433e-01 -2.866769747363452914e-01 6.700416700677920279e-01 -1.713890526123755254e-01 1.595519969502863789e-01 5.691319781910708642e-02 -2.886058600927446371e-01 1.384345255938414510e-01 6.634947538460622685e-01 2.846714810080192670e+00 2.953715535628981037e+00 -1.047992444615392316e+00 -7.054032871715802067e+00 2.502918923655517158e-01 -1.766200066612385822e+00 1.589626608207799219e+00 5.608172012111335425e-01 6.327860844404457730e+00 -4.417191983572767988e-01 -5.263862580679864678e+00 -9.284162048606505735e+00 -1.668880035330489164e+01 1.784571800423676025e-01 -8.851815116033463493e-01 -4.623844768369874458e+00 0.000000000000000000e+00 0.000000000000000000e+00 0.000000000000000000e+00 -4.846747356063822911e-15 1.922323597727814932e-15 0.000000000000000000e+00 -2.159172915261442463e-16 1.043561384241638319e-15 0.000000000000000000e+00 -3.625280630184085225e-16 -6.003654318990501656e-16 -5.693702801917492775e-16 0.000000000000000000e+00 0.000000000000000000e+00 0.000000000000000000e+00 0.000000000000000000e+00 -7.653543883348237882e-16 -6.070004128957152381e-15 0.000000000000000000e+00 -3.902392465145088523e-16 -1.337042033002287418e-15 -3.625280630184085225e-16 -6.003654318990501656e-16 -5.693702801917492775e-16 0.000000000000000000e+00 2.966601435222919928e-16 3.087307333032503255e-16 0.000000000000000000e+00 -2.866233421414438361e-16 -2.728043739361965916e-15 0.000000000000000000e+00 1.151351121816701954e-16 -9.513454402046301241e-16 -3.625280630184085225e-16 -6.003654318990501656e-16 -5.693702801917492775e-16 0.000000000000000000e+00 0.000000000000000000e+00 0.000000000000000000e+00 0.000000000000000000e+00 -1.820161673244454024e-15 1.195513618492807594e-16 0.000000000000000000e+00 -1.803278730764688057e-15 -1.664043242999216154e-15 -3.625280630184085225e-16 -6.003654318990501656e-16 -5.693702801917492775e-16 0.000000000000000000e+00 0.000000000000000000e+00 0.000000000000000000e+00 0.000000000000000000e+00 -1.104772912898321777e-15 -5.668327011455730087e-15 0.000000000000000000e+00 3.461642677279796766e-16 2.229753807177432161e-17 2.647329807881245500e+00 3.566221580550370945e-02 3.597171163838243757e+00 8.704485902181380297e-02 2.057549922360752959e+00 3.258276172497599710e+00 -3.580462682464741864e+00 -1.035603520797485189e+01 9.488993489118485058e+00 5.828053732500794171e-01 -1.719184555956833726e+00 2.544886634671200021e+00 0.000000000000000000e+00 0.000000000000000000e+00 0.000000000000000000e+00 6.233093824721555551e-17 -1.240521774421076839e-15 0.000000000000000000e+00 -1.822658239706089597e-15 -9.180923458192429628e-16 0.000000000000000000e+00 -1.240913581050587923e-16 6.184483933066199537e-16 8.811890710268535318e-16 0.000000000000000000e+00 0.000000000000000000e+00 0.000000000000000000e+00 0.000000000000000000e+00 3.078121759055830024e-16 -5.153410771140907356e-17 0.000000000000000000e+00 3.946529407545926658e-16 2.056785059400586646e-16 -1.240913581050587923e-16 6.184483933066199537e-16 8.811890710268535318e-16 0.000000000000000000e+00 4.274674640988605074e-16 3.613991849056800078e-16 0.000000000000000000e+00 -5.975077467764677543e-16 2.970171408663100508e-15 0.000000000000000000e+00 2.652124312422919222e-16 8.250004792957484770e-16 -1.240913581050587923e-16 6.184483933066199537e-16 8.811890710268535318e-16 0.000000000000000000e+00 0.000000000000000000e+00 0.000000000000000000e+00 0.000000000000000000e+00 1.138157583113595320e-16 -4.566531584232636327e-16 0.000000000000000000e+00 3.543918822401116801e-16 2.950068907356663215e-15 -1.240913581050587923e-16 6.184483933066199537e-16 8.811890710268535318e-16 0.000000000000000000e+00 0.000000000000000000e+00 0.000000000000000000e+00 0.000000000000000000e+00 2.063630307281413804e-16 -2.005818747949044526e-16 0.000000000000000000e+00 1.414941743504166738e-17 3.352048469502428338e-15
